PathFileType	4	(X/Y/Z)	C:\Users\u0088756\Documents\Phd\software\TrackingSim_Simtk\KSMarker.trc
DataRate	CameraRate	NumFrames	NumMarkers	Units	OrigDataRate	OrigDataStartFrame	OrigNumFrames
77.343750	77.343750	14	34	m	77.343750	17	100
Frame#	Times		RASI		LASI		CLAV		RSHO		LSHO		LKNE		LKNEmed		LTHI3		LANK		LANKmed		LTIB		LTIB2		LTIB3		LTOE		LHEE		LLatFoot		RPSI		LPSI		RASI		LASI		RKNE		RTHI		RTHI2		RTHI3		RANK		RANKmed		RTIB		RTIB2		RTIB3		RTOE		RHEE		RLatFoot		RPSI		LPSI
			X1	Y1	Z1	X2	Y2	Z2	X3	Y3	Z3	X4	Y4	Z4	X5	Y5	Z5	X6	Y6	Z6	X7	Y7	Z7	X8	Y8	Z8	X9	Y9	Z9	X10	Y10	Z10	X11	Y11	Z11	X12	Y12	Z12	X13	Y13	Z13	X14	Y14	Z14	X15	Y15	Z15	X16	Y16	Z16	X17	Y17	Z17	X18	Y18	Z18	X19	Y19	Z19	X20	Y20	Z20	X21	Y21	Z21	X22	Y22	Z22	X23	Y23	Z23	X24	Y24	Z24	X25	Y25	Z25	X26	Y26	Z26	X27	Y27	Z27	X28	Y28	Z28	X29	Y29	Z29	X30	Y30	Z30	X31	Y31	Z31	X32	Y32	Z32	X33	Y33	Z33	X34	Y34	Z34

17	0.20687	0.60332	0.95382	0.12667	0.61781	0.95688	-0.11526	0.57795	1.4249	-0.033154	0.49107	1.4752	0.1794	0.47119	1.443	-0.25145	0.6742	0.48285	-0.15877	0.68036	0.48209	-0.041889	0.61429	0.66738	-0.20844	0.64206	0.068499	-0.11771	0.68014	0.090703	-0.027245	0.66921	0.28658	-0.16507	0.61182	0.27864	-0.16934	0.64845	0.23522	-0.16223	0.81563	0.038373	-0.081121	0.57908	0.020163	-0.054143	0.72128	-0.011205	-0.14075	0.36904	0.97951	0.020397	0.36678	0.98691	-0.047521	0.60332	0.95382	0.12667	0.61781	0.95688	-0.11526	0.49496	0.44614	0.14991	0.55667	0.68816	0.19102	0.49657	0.67633	0.19521	0.53107	0.64279	0.1901	0.17234	0.16961	0.13997	0.20103	0.16096	0.046881	0.33494	0.3067	0.1711	0.29626	0.34395	0.17122	0.28222	0.29071	0.16894	0.25636	0.018829	0.090973	0.093153	0.19091	0.084766	0.1737	0.051999	0.16602	0.36904	0.97951	0.020396	0.36678	0.98691	-0.047522
18	0.2198	0.6165	0.9541	0.12385	0.62969	0.9595	-0.11811	0.59036	1.4262	-0.035036	0.50288	1.4768	0.17721	0.48421	1.444	-0.25366	0.67892	0.48148	-0.16063	0.68557	0.48117	-0.043777	0.62215	0.66683	-0.21095	0.64158	0.067857	-0.11768	0.68037	0.089938	-0.027476	0.67138	0.28536	-0.16609	0.61386	0.27816	-0.17006	0.64996	0.23429	-0.16293	0.8152	0.03743	-0.082242	0.57882	0.019677	-0.053528	0.72033	-0.012071	-0.14112	0.38162	0.98051	0.019078	0.37899	0.98855	-0.048753	0.6165	0.9541	0.12385	0.62969	0.9595	-0.11811	0.52612	0.44814	0.14969	0.57722	0.69287	0.18932	0.51768	0.67847	0.19349	0.55361	0.64643	0.18866	0.19407	0.18084	0.13936	0.22287	0.17094	0.046425	0.36074	0.3129	0.17069	0.32324	0.35134	0.17051	0.30756	0.29856	0.16836	0.26502	0.023088	0.089175	0.11815	0.20934	0.084322	0.18541	0.062835	0.16431	0.38162	0.98051	0.019078	0.37899	0.98855	-0.048753
19	0.23273	0.62939	0.95433	0.1212	0.64128	0.96203	-0.12077	0.60269	1.4275	-0.036686	0.51466	1.4784	0.17526	0.49713	1.4451	-0.25561	0.68269	0.48005	-0.16245	0.69	0.48018	-0.045633	0.62923	0.66621	-0.21337	0.64092	0.067192	-0.11766	0.68051	0.089172	-0.027781	0.67294	0.28415	-0.1671	0.61532	0.2776	-0.17071	0.65095	0.23334	-0.16362	0.81463	0.03645	-0.083577	0.57847	0.019187	-0.052874	0.71918	-0.012959	-0.14159	0.39393	0.98154	0.017928	0.39094	0.99023	-0.049808	0.62939	0.95433	0.1212	0.64128	0.96203	-0.12077	0.55671	0.45093	0.14967	0.59697	0.69788	0.18794	0.53809	0.68094	0.19197	0.5754	0.65046	0.18748	0.21708	0.19129	0.13796	0.24624	0.18033	0.045256	0.38689	0.31912	0.16999	0.35039	0.35851	0.16942	0.33337	0.30614	0.16735	0.2764	0.028463	0.086816	0.14473	0.22578	0.082898	0.19963	0.073659	0.16184	0.39393	0.98154	0.017929	0.39094	0.99023	-0.049808
20	0.24566	0.64207	0.95472	0.11867	0.65268	0.9645	-0.12329	0.61491	1.4288	-0.038108	0.52621	1.4799	0.17349	0.51007	1.4461	-0.25739	0.68611	0.47868	-0.16412	0.69404	0.47918	-0.047341	0.63605	0.66564	-0.21559	0.6402	0.06661	-0.11774	0.68055	0.088447	-0.028165	0.67429	0.28304	-0.16809	0.61658	0.27711	-0.17133	0.65177	0.23248	-0.16431	0.81398	0.035523	-0.084966	0.57804	0.018754	-0.05237	0.71798	-0.013753	-0.14217	0.40604	0.98255	0.016885	0.40268	0.99181	-0.050758	0.64207	0.95472	0.11867	0.65268	0.9645	-0.12329	0.5861	0.45438	0.14962	0.61592	0.703	0.18669	0.55778	0.68365	0.19054	0.59633	0.65472	0.1864	0.24049	0.20091	0.13604	0.2701	0.18911	0.04358	0.41267	0.32528	0.16901	0.37701	0.36542	0.16808	0.35892	0.31341	0.166	0.29222	0.035275	0.08457	0.1708	0.23906	0.080724	0.21727	0.08395	0.15925	0.40604	0.98255	0.016885	0.40268	0.99181	-0.050758
21	0.25859	0.65462	0.95552	0.11622	0.66388	0.96693	-0.12571	0.62695	1.4301	-0.03937	0.53736	1.4815	0.1718	0.52305	1.4473	-0.25912	0.68946	0.47745	-0.16556	0.69792	0.47824	-0.048824	0.64285	0.66515	-0.21755	0.63952	0.066167	-0.11791	0.68054	0.087803	-0.028595	0.67565	0.2821	-0.16899	0.61787	0.27676	-0.17194	0.65262	0.23179	-0.16497	0.81334	0.034701	-0.086295	0.57759	0.018425	-0.05206	0.71685	-0.014395	-0.14282	0.41799	0.98357	0.01592	0.41423	0.99327	-0.05164	0.65462	0.95552	0.11622	0.66388	0.96692	-0.12571	0.61416	0.45841	0.14929	0.63426	0.70814	0.1854	0.57689	0.68659	0.18912	0.61654	0.65914	0.18525	0.26388	0.2098	0.13388	0.29386	0.19739	0.041617	0.43788	0.33137	0.16776	0.40288	0.37208	0.16656	0.38395	0.32038	0.16444	0.31341	0.043334	0.082984	0.1951	0.24892	0.078067	0.23874	0.093255	0.15713	0.41799	0.98357	0.01592	0.41423	0.99327	-0.051641
22	0.27152	0.66705	0.95691	0.11386	0.67488	0.96924	-0.12808	0.63875	1.4316	-0.040553	0.54805	1.4832	0.17009	0.53602	1.4486	-0.26087	0.69278	0.47637	-0.16674	0.70167	0.47738	-0.050034	0.64962	0.66478	-0.21917	0.63894	0.065873	-0.11811	0.68054	0.087258	-0.029007	0.67707	0.28132	-0.16976	0.61922	0.27658	-0.17246	0.65353	0.23127	-0.16555	0.81275	0.033982	-0.087508	0.57718	0.018223	-0.051866	0.71582	-0.014883	-0.14346	0.42977	0.98473	0.015036	0.4256	0.99468	-0.052465	0.66705	0.95691	0.11386	0.67488	0.96924	-0.12808	0.64115	0.46304	0.14857	0.65217	0.71342	0.18405	0.59561	0.68983	0.18772	0.63624	0.66381	0.18399	0.28755	0.21775	0.13163	0.31777	0.205	0.039501	0.4628	0.33728	0.16628	0.42829	0.3784	0.16493	0.40877	0.32692	0.16272	0.3393	0.051884	0.081959	0.2181	0.25573	0.07522	0.26366	0.10124	0.15549	0.42977	0.98473	0.015036	0.4256	0.99468	-0.052465
23	0.28444	0.67935	0.95895	0.11159	0.68565	0.97138	-0.13039	0.65034	1.4332	-0.041706	0.55842	1.485	0.16836	0.54891	1.4501	-0.26263	0.69596	0.47543	-0.16764	0.70525	0.47658	-0.050966	0.65624	0.66448	-0.22046	0.63844	0.065698	-0.11827	0.68059	0.086797	-0.029355	0.67846	0.2807	-0.17036	0.62056	0.27651	-0.17283	0.65446	0.23088	-0.16599	0.81224	0.033333	-0.088611	0.57683	0.018128	-0.051684	0.71488	-0.015255	-0.14406	0.44139	0.98616	0.014241	0.43678	0.99612	-0.05323	0.67935	0.95895	0.11159	0.68565	0.97138	-0.13039	0.66738	0.4683	0.14745	0.66976	0.71895	0.18269	0.61404	0.69343	0.18635	0.65554	0.66883	0.18267	0.31218	0.22416	0.12939	0.34254	0.21139	0.037309	0.48795	0.34276	0.16459	0.45364	0.38406	0.16323	0.43387	0.33267	0.1609	0.36814	0.059694	0.080904	0.24138	0.26006	0.072485	0.29105	0.10748	0.15396	0.44139	0.98617	0.014241	0.43678	0.99612	-0.05323
24	0.29737	0.69154	0.96154	0.10939	0.6962	0.97332	-0.13266	0.66179	1.4351	-0.042829	0.56864	1.4871	0.16665	0.56167	1.4518	-0.26436	0.69884	0.47457	-0.16829	0.70854	0.47583	-0.051655	0.66258	0.66422	-0.22146	0.63798	0.065583	-0.11836	0.68067	0.086381	-0.029632	0.67972	0.28017	-0.1708	0.62178	0.2765	-0.17304	0.65529	0.23057	-0.16629	0.81177	0.032723	-0.089654	0.57653	0.018086	-0.051449	0.71398	-0.015562	-0.14462	0.45287	0.98786	0.013545	0.44778	0.99762	-0.05392	0.69154	0.96154	0.10939	0.6962	0.97332	-0.13266	0.69292	0.47415	0.14597	0.68705	0.72472	0.18132	0.63221	0.69737	0.18503	0.67449	0.67416	0.1813	0.33818	0.22844	0.12722	0.36862	0.21599	0.035112	0.51357	0.34751	0.16276	0.47914	0.3887	0.16148	0.45953	0.33726	0.15902	0.39837	0.065595	0.079346	0.2661	0.26233	0.070074	0.31999	0.11155	0.15221	0.45287	0.98786	0.013546	0.44778	0.99762	-0.05392
25	0.3103	0.70365	0.96447	0.10721	0.70653	0.97511	-0.13492	0.67313	1.437	-0.043906	0.57883	1.4891	0.16503	0.57425	1.4536	-0.266	0.70124	0.47375	-0.16874	0.71141	0.47509	-0.052148	0.66852	0.66395	-0.22223	0.6375	0.065473	-0.11838	0.68074	0.08597	-0.029846	0.68071	0.2797	-0.1711	0.62273	0.27649	-0.17308	0.6559	0.2303	-0.16646	0.81128	0.032135	-0.090675	0.57623	0.018032	-0.051136	0.71306	-0.015846	-0.14513	0.46423	0.98973	0.012975	0.45862	0.99915	-0.054497	0.70365	0.96447	0.10721	0.70653	0.97511	-0.13492	0.71772	0.48038	0.14416	0.70402	0.73059	0.17992	0.65008	0.70152	0.1837	0.69307	0.67965	0.17984	0.36549	0.23046	0.12514	0.39594	0.2186	0.032962	0.5396	0.35135	0.1608	0.50472	0.39217	0.15969	0.48567	0.34052	0.15711	0.42943	0.069221	0.077267	0.29234	0.26263	0.068027	0.35005	0.11329	0.15021	0.46422	0.98973	0.012975	0.45862	0.99915	-0.054497
26	0.32323	0.71574	0.96749	0.105	0.71665	0.97678	-0.1372	0.68437	1.439	-0.044932	0.58906	1.4912	0.16351	0.5866	1.4555	-0.26752	0.70306	0.47293	-0.16904	0.71374	0.47434	-0.052487	0.67402	0.66364	-0.22286	0.63689	0.065335	-0.11831	0.68072	0.085546	-0.030004	0.68133	0.27925	-0.1713	0.62332	0.27644	-0.17299	0.65621	0.23002	-0.16652	0.8107	0.031556	-0.091687	0.57586	0.017934	-0.050736	0.71204	-0.016136	-0.1456	0.4755	0.99162	0.012555	0.46933	1.0007	-0.054921	0.71574	0.96749	0.105	0.71665	0.97678	-0.1372	0.74161	0.48671	0.14203	0.72065	0.73632	0.17843	0.6676	0.70566	0.1823	0.7112	0.68509	0.17826	0.3937	0.23044	0.12316	0.42412	0.2194	0.030871	0.56574	0.35429	0.15874	0.53014	0.39448	0.15784	0.512	0.34252	0.15516	0.46161	0.071038	0.074964	0.31947	0.2608	0.066243	0.3813	0.11296	0.14815	0.4755	0.99162	0.012554	0.46934	1.0007	-0.054922
27	0.33616	0.72781	0.97041	0.10276	0.72659	0.97834	-0.13949	0.69553	1.4408	-0.045925	0.59936	1.4931	0.1621	0.59869	1.4574	-0.26893	0.70427	0.47212	-0.1692	0.71553	0.47359	-0.052707	0.67907	0.66327	-0.22338	0.63611	0.065171	-0.11818	0.68055	0.085107	-0.030117	0.68156	0.27881	-0.1714	0.62352	0.27636	-0.17277	0.65616	0.22974	-0.16649	0.80995	0.03096	-0.092695	0.57535	0.017809	-0.050255	0.71084	-0.016444	-0.14604	0.48672	0.99346	0.012284	0.47994	1.0021	-0.055186	0.72781	0.97041	0.10276	0.72659	0.97834	-0.13949	0.76449	0.49292	0.13965	0.73689	0.74177	0.17683	0.6847	0.70967	0.18081	0.72883	0.6903	0.17655	0.4225	0.22866	0.12126	0.45282	0.2186	0.028827	0.59176	0.35634	0.15659	0.55523	0.3957	0.15595	0.53829	0.34334	0.15317	0.49536	0.071689	0.07272	0.34696	0.25662	0.064591	0.41397	0.1109	0.14622	0.48672	0.99346	0.012284	0.47994	1.0021	-0.055186
28	0.34909	0.73984	0.9731	0.10053	0.7364	0.97973	-0.14174	0.70661	1.4425	-0.046903	0.60978	1.4949	0.16079	0.61052	1.4591	-0.27023	0.705	0.47133	-0.16926	0.71687	0.47286	-0.052832	0.68375	0.66285	-0.22384	0.63518	0.064991	-0.11803	0.68025	0.084657	-0.03022	0.68145	0.27841	-0.17144	0.62339	0.27626	-0.17247	0.65582	0.22947	-0.1664	0.80906	0.030317	-0.093715	0.57471	0.017682	-0.049743	0.70948	-0.016778	-0.14646	0.49789	0.99521	0.012123	0.49048	1.0035	-0.055327	0.73984	0.9731	0.10052	0.7364	0.97973	-0.14174	0.78631	0.49888	0.13709	0.75268	0.74685	0.17516	0.70133	0.71345	0.17927	0.74591	0.6952	0.17476	0.45185	0.2252	0.11939	0.48204	0.21626	0.026798	0.6176	0.3575	0.15438	0.57997	0.39582	0.154	0.5645	0.34301	0.15114	0.53083	0.071482	0.070599	0.37479	0.25003	0.062972	0.44818	0.10731	0.14441	0.49789	0.99521	0.012123	0.49048	1.0035	-0.055327
29	0.36202	0.75181	0.97551	0.098343	0.74616	0.98091	-0.14391	0.71767	1.4441	-0.047886	0.6204	1.4966	0.15959	0.62208	1.4606	-0.27143	0.70544	0.47058	-0.16925	0.71794	0.47214	-0.05288	0.68821	0.66239	-0.22422	0.63423	0.064806	-0.11791	0.67992	0.084198	-0.030364	0.6812	0.27803	-0.17147	0.62313	0.27617	-0.17215	0.65537	0.22921	-0.1663	0.80814	0.029629	-0.094761	0.57405	0.017561	-0.049289	0.7081	-0.017129	-0.14692	0.50903	0.99685	0.012028	0.50101	1.0048	-0.055393	0.75181	0.97551	0.098342	0.74616	0.98091	-0.14391	0.8071	0.5045	0.13445	0.76801	0.75152	0.17348	0.71745	0.71694	0.17769	0.76241	0.69972	0.17293	0.48194	0.22006	0.11748	0.51199	0.21237	0.024733	0.64335	0.35773	0.1521	0.60447	0.39477	0.15199	0.59075	0.34148	0.14905	0.56792	0.070429	0.068489	0.40332	0.24113	0.061314	0.48393	0.10228	0.14261	0.50903	0.99685	0.012027	0.50101	1.0048	-0.055394
30	0.37495	0.76372	0.97757	0.096265	0.75595	0.98185	-0.14596	0.72874	1.4454	-0.04888	0.63127	1.498	0.15848	0.63339	1.462	-0.27252	0.70588	0.46988	-0.16916	0.71896	0.47144	-0.052861	0.69268	0.66189	-0.22454	0.63348	0.064627	-0.11789	0.67974	0.083736	-0.030584	0.68104	0.27771	-0.1715	0.62296	0.27609	-0.17185	0.65503	0.22899	-0.16623	0.8074	0.028936	-0.095831	0.57356	0.017437	-0.048969	0.70692	-0.01747	-0.14746	0.52019	0.99833	0.011976	0.51156	1.0059	-0.055408	0.76372	0.97757	0.096265	0.75595	0.98185	-0.14595	0.82689	0.50967	0.13176	0.78289	0.7557	0.17182	0.73307	0.72008	0.17611	0.77836	0.7038	0.17111	0.51298	0.2133	0.11547	0.54289	0.20701	0.022568	0.66912	0.357	0.14974	0.62884	0.39251	0.14991	0.61718	0.33874	0.14689	0.60647	0.068537	0.066251	0.43291	0.23015	0.059545	0.52118	0.095934	0.14067	0.52018	0.99833	0.011976	0.51156	1.0059	-0.055408
